<svg xmlns="http://www.w3.org/2000/svg" viewBox="0 0 234.22 231.57"><defs><style>.cls-1,.cls-3{fill:gold;}.cls-1,.cls-2,.cls-4{isolation:isolate;}.cls-2{fill:#030300;}.cls-4,.cls-5{fill:green;}</style></defs><g id="Layer_2" data-name="Layer 2"><g id="Layer_1-2" data-name="Layer 1"><path class="cls-1" d="M113.49,0A113.49,113.49,0,0,0,47.17,205.59l34-5.73c-26.49-15.24-56-53.61-56-86.37A88.28,88.28,0,0,1,194.44,78.27L209.3,57.84C193,20.14,159.58,0,113.49,0Z"/><path class="cls-1" d="M197.69,86.92a88.47,88.47,0,0,1,2.49,9.9l3.23-9Z"/><polygon class="cls-2" points="197.22 83.02 219.86 51.11 226.57 34.12 209.31 57.84 194.44 78.27 189.07 85.64 197.69 86.92 203.41 87.78 200.18 96.82 189.05 127.93 200.6 112.44 211.56 85.15 197.22 83.02"/><polygon class="cls-3" points="230.78 80.27 217.13 76 230.78 35.73 219.86 51.11 197.22 83.02 211.56 85.15 200.6 112.44 196 123.9 230.78 80.27"/><path class="cls-4" d="M56.15,119.31A23.32,23.32,0,0,1,79.44,96h58.17a10.28,10.28,0,0,1,0,20.55H71.71v12h65.9a22.28,22.28,0,0,0,0-44.55H97.47l2.28-5.36c.84-2,2.67-3.48,3.74-3.48H162l5-12H103.49C96.44,63.18,91,68.6,88.7,74L84.44,84h-5a35.29,35.29,0,0,0,0,70.58h61.91l5-12H79.44A23.32,23.32,0,0,1,56.15,119.31Z"/><rect class="cls-5" x="150.22" y="165.57" width="41.49" height="31.73"/><path class="cls-5" d="M197.61,197.45H202c12.68-12.16,22.53-31.89,22.53-31.89H197.61Z"/><path class="cls-5" d="M197.61,129.77v29.39s20.13.1,29.29,0a106.91,106.91,0,0,0,7.32-29.39Z"/><path class="cls-5" d="M111.57,197.3h33l.31-27.87C131.56,185.45,112.18,197,111.57,197.3Z"/><path class="cls-5" d="M191.71,129.77s-25.92-.61-26,0c-1.78,9.84-13.63,29.44-13.63,29.44h39.66Z"/><path class="cls-5" d="M103.41,230c24.89,4.17,41.42-1,41.42-1V203.4H103.24S103.45,226.77,103.41,230Z"/><path class="cls-5" d="M98.39,228.92V203.4l-41.58,8.13S80.68,227.17,98.39,228.92Z"/><path class="cls-5" d="M150.22,203.4v24S171,223.13,191.71,207c.7-.55,0-3.56,0-3.56Z"/></g></g></svg>